# xmcd CD database file
#
# Track frame offsets:
#	150
#	18450
#	41050
#	72725
#	87380
#	116355
#	139090
#	147017
#	161885
#
# Disc length: 2401 seconds
#
# Revision: 2
# Processed by: cddbd v1.5.1PL2 Copyright (c) Steve Scherf et al.
# Submitted via: CDex 1.51
#
DISCID=81095f09
DTITLE=Jesse Colin Young - Song For Juli
DYEAR=1973
DGENRE=Folk
TTITLE0=Mornin' Sun
TTITLE1=Song For Juli
TTITLE2=Ridgetop
TTITLE3=Evenin'
TTITLE4=Miss Hesitation
TTITLE5=T-Bone Shuffle
TTITLE6=Lafayette Waltz
TTITLE7=Jambalaya
TTITLE8=Country Home
EXTD=YEAR: 1973
EXTT0=
EXTT1=
EXTT2=
EXTT3=
EXTT4=
EXTT5=
EXTT6=
EXTT7=
EXTT8=
PLAYORDER=
